<?xml version="1.0" encoding="UTF-8" standalone="no"?>
<svg
   xmlns:dc="http://purl.org/dc/elements/1.1/"
   xmlns:cc="http://creativecommons.org/ns#"
   xmlns:rdf="http://www.w3.org/1999/02/22-rdf-syntax-ns#"
   xmlns:svg="http://www.w3.org/2000/svg"
   xmlns="http://www.w3.org/2000/svg"
   xmlns:xlink="http://www.w3.org/1999/xlink"
   xmlns:sodipodi="http://sodipodi.sourceforge.net/DTD/sodipodi-0.dtd"
   xmlns:inkscape="http://www.inkscape.org/namespaces/inkscape"
   width="500pt"
   height="500pt"
   viewBox="0 0 500.00001 499.99998"
   version="1.1"
   id="svg4831"
   inkscape:version="0.91+devel+osxmenu r12896"
   sodipodi:docname="graphics.svg"
   inkscape:export-filename="/Users/forrest/Projects/static/maya/source/images/pages.png"
   inkscape:export-xdpi="89.843697"
   inkscape:export-ydpi="89.843697">
  <metadata
     id="metadata4939">
    <rdf:RDF>
      <cc:Work
         rdf:about="">
        <dc:format>image/svg+xml</dc:format>
        <dc:type
           rdf:resource="http://purl.org/dc/dcmitype/StillImage" />
        <dc:title />
      </cc:Work>
    </rdf:RDF>
  </metadata>
  <sodipodi:namedview
     pagecolor="#ffffff"
     bordercolor="#666666"
     borderopacity="1"
     objecttolerance="10"
     gridtolerance="10"
     guidetolerance="10"
     inkscape:pageopacity="0"
     inkscape:pageshadow="2"
     inkscape:window-width="1280"
     inkscape:window-height="685"
     id="namedview4937"
     showgrid="false"
     fit-margin-top="10"
     fit-margin-left="10"
     fit-margin-right="10"
     fit-margin-bottom="10"
     inkscape:zoom="0.86631083"
     inkscape:cx="932.5223"
     inkscape:cy="2299.6221"
     inkscape:window-x="0"
     inkscape:window-y="23"
     inkscape:window-maximized="0"
     inkscape:current-layer="g4941" />
  <defs
     id="defs4833">
    <clipPath
       id="clip1">
      <path
         d="m 730,10 293.9805,0 0,287 L 730,297 Z m 0,0"
         id="path4836"
         inkscape:connector-curvature="0" />
    </clipPath>
    <clipPath
       id="clip2">
      <path
         d="m 730,353 293.9805,0 0,287 L 730,640 Z m 0,0"
         id="path4839"
         inkscape:connector-curvature="0" />
    </clipPath>
    <clipPath
       id="clip3">
      <path
         d="m 510,676 18,0 0,20 -18,0 z m 0,0"
         id="path4842"
         inkscape:connector-curvature="0" />
    </clipPath>
    <clipPath
       id="clip4">
      <path
         d="m 514.88672,695.98828 c -0.53906,0 -1.03906,-0.46875 -1.03906,-0.46875 l -3.04297,-19.02344 c 1.84375,0 4.15625,-0.13672 4.84375,-0.13672 0.54297,0 1.03906,0.46875 1.03906,0.46875 l 0.92969,9.3086 c 0.082,0.80078 0.0859,1.91406 0.0547,3.08594 0.30079,-1.28125 0.62891,-2.49219 0.95313,-3.3086 l 3.69922,-9.41797 c 1.64453,0 3.68359,-0.13672 4.3164,-0.13672 0.53907,0 1.03907,0.46875 1.03907,0.46875 l -8.90625,19.02344 c -0.97657,0 -3.31641,0.13672 -3.88672,0.13672"
         id="path4845"
         inkscape:connector-curvature="0" />
    </clipPath>
    <clipPath
       id="clip5">
      <path
         d="m 594,681 16,0 0,21.21094 -16,0 z m 0,0"
         id="path4848"
         inkscape:connector-curvature="0" />
    </clipPath>
    <clipPath
       clipPathUnits="userSpaceOnUse"
       id="clipPath6266">
      <use
         x="0"
         y="0"
         xlink:href="#path6242"
         id="use6268"
         transform="matrix(0.99423058,0,-0.33146652,1.0058029,0,0)"
         width="100%"
         height="100%" />
    </clipPath>
    <clipPath
       clipPathUnits="userSpaceOnUse"
       id="clipPath6270">
      <use
         x="0"
         y="0"
         xlink:href="#path6242"
         id="use6272"
         transform="matrix(1,0,-0.3547401,1.0610563,0,0)"
         width="100%"
         height="100%" />
    </clipPath>
    <clipPath
       clipPathUnits="userSpaceOnUse"
       id="clipPath6274">
      <use
         x="0"
         y="0"
         xlink:href="#path6242"
         id="use6276"
         width="100%"
         height="100%" />
    </clipPath>
    <clipPath
       clipPathUnits="userSpaceOnUse"
       id="clipPath6278">
      <use
         x="0"
         y="0"
         xlink:href="#path6242"
         id="use6280"
         transform="matrix(-1,0,-0.3547401,1.0610563,0,0)"
         width="100%"
         height="100%" />
    </clipPath>
    <clipPath
       clipPathUnits="userSpaceOnUse"
       id="clipPath6501">
      <path
         style="fill:#9f9ed8;fill-opacity:1;stroke:none;stroke-width:2.0014174;stroke-miterlimit:4;stroke-dasharray:none;stroke-opacity:1"
         d="M 717.36886,389.04694 A 180.99407,182.05251 0 0 1 536.37476,571.09945 180.99407,182.05251 0 0 1 355.38066,389.04694 180.99407,182.05251 0 0 1 536.37476,206.99443 180.99407,182.05251 0 0 1 717.36886,389.04694 Z"
         id="path6503"
         inkscape:connector-curvature="0"
         inkscape:export-filename="/Users/forrest/Projects/static/maya/source/images/pages.png"
         inkscape:export-xdpi="29.859514"
         inkscape:export-ydpi="29.859514" />
    </clipPath>
    <clipPath
       clipPathUnits="userSpaceOnUse"
       id="clipPath6505">
      <path
         style="fill:#9f9ed8;fill-opacity:1;stroke:none;stroke-width:2.0014174;stroke-miterlimit:4;stroke-dasharray:none;stroke-opacity:1"
         d="M 717.36886,389.04694 A 180.99407,182.05251 0 0 1 536.37476,571.09945 180.99407,182.05251 0 0 1 355.38066,389.04694 180.99407,182.05251 0 0 1 536.37476,206.99443 180.99407,182.05251 0 0 1 717.36886,389.04694 Z"
         id="path6507"
         inkscape:connector-curvature="0"
         inkscape:export-filename="/Users/forrest/Projects/static/maya/source/images/pages.png"
         inkscape:export-xdpi="29.859514"
         inkscape:export-ydpi="29.859514" />
    </clipPath>
    <clipPath
       clipPathUnits="userSpaceOnUse"
       id="clipPath6509">
      <path
         style="fill:#9f9ed8;fill-opacity:1;stroke:none;stroke-width:2.0014174;stroke-miterlimit:4;stroke-dasharray:none;stroke-opacity:1"
         d="M 717.36886,389.04694 A 180.99407,182.05251 0 0 1 536.37476,571.09945 180.99407,182.05251 0 0 1 355.38066,389.04694 180.99407,182.05251 0 0 1 536.37476,206.99443 180.99407,182.05251 0 0 1 717.36886,389.04694 Z"
         id="path6511"
         inkscape:connector-curvature="0"
         inkscape:export-filename="/Users/forrest/Projects/static/maya/source/images/pages.png"
         inkscape:export-xdpi="29.859514"
         inkscape:export-ydpi="29.859514" />
    </clipPath>
    <clipPath
       clipPathUnits="userSpaceOnUse"
       id="clipPath6513">
      <path
         style="fill:#9f9ed8;fill-opacity:1;stroke:none;stroke-width:2.0014174;stroke-miterlimit:4;stroke-dasharray:none;stroke-opacity:1"
         d="M 717.36886,389.04694 A 180.99407,182.05251 0 0 1 536.37476,571.09945 180.99407,182.05251 0 0 1 355.38066,389.04694 180.99407,182.05251 0 0 1 536.37476,206.99443 180.99407,182.05251 0 0 1 717.36886,389.04694 Z"
         id="path6515"
         inkscape:connector-curvature="0"
         inkscape:export-filename="/Users/forrest/Projects/static/maya/source/images/pages.png"
         inkscape:export-xdpi="29.859514"
         inkscape:export-ydpi="29.859514" />
    </clipPath>
    <clipPath
       clipPathUnits="userSpaceOnUse"
       id="clipPath6517">
      <path
         style="fill:#9f9ed8;fill-opacity:1;stroke:none;stroke-width:2.0014174;stroke-miterlimit:4;stroke-dasharray:none;stroke-opacity:1"
         d="M 717.36886,389.04694 A 180.99407,182.05251 0 0 1 536.37476,571.09945 180.99407,182.05251 0 0 1 355.38066,389.04694 180.99407,182.05251 0 0 1 536.37476,206.99443 180.99407,182.05251 0 0 1 717.36886,389.04694 Z"
         id="path6519"
         inkscape:connector-curvature="0"
         inkscape:export-filename="/Users/forrest/Projects/static/maya/source/images/pages.png"
         inkscape:export-xdpi="29.859514"
         inkscape:export-ydpi="29.859514" />
    </clipPath>
    <clipPath
       clipPathUnits="userSpaceOnUse"
       id="clipPath6521">
      <path
         style="fill:#9f9ed8;fill-opacity:1;stroke:none;stroke-width:2.0014174;stroke-miterlimit:4;stroke-dasharray:none;stroke-opacity:1"
         d="M 717.36886,389.04694 A 180.99407,182.05251 0 0 1 536.37476,571.09945 180.99407,182.05251 0 0 1 355.38066,389.04694 180.99407,182.05251 0 0 1 536.37476,206.99443 180.99407,182.05251 0 0 1 717.36886,389.04694 Z"
         id="path6523"
         inkscape:connector-curvature="0"
         inkscape:export-filename="/Users/forrest/Projects/static/maya/source/images/pages.png"
         inkscape:export-xdpi="29.859514"
         inkscape:export-ydpi="29.859514" />
    </clipPath>
    <clipPath
       clipPathUnits="userSpaceOnUse"
       id="clipPath6525">
      <path
         style="fill:#9f9ed8;fill-opacity:1;stroke:none;stroke-width:2.0014174;stroke-miterlimit:4;stroke-dasharray:none;stroke-opacity:1"
         d="M 717.36886,389.04694 A 180.99407,182.05251 0 0 1 536.37476,571.09945 180.99407,182.05251 0 0 1 355.38066,389.04694 180.99407,182.05251 0 0 1 536.37476,206.99443 180.99407,182.05251 0 0 1 717.36886,389.04694 Z"
         id="path6527"
         inkscape:connector-curvature="0"
         inkscape:export-filename="/Users/forrest/Projects/static/maya/source/images/pages.png"
         inkscape:export-xdpi="29.859514"
         inkscape:export-ydpi="29.859514" />
    </clipPath>
    <clipPath
       clipPathUnits="userSpaceOnUse"
       id="clipPath6529">
      <path
         style="fill:#9f9ed8;fill-opacity:1;stroke:none;stroke-width:2.0014174;stroke-miterlimit:4;stroke-dasharray:none;stroke-opacity:1"
         d="M 717.36886,389.04694 A 180.99407,182.05251 0 0 1 536.37476,571.09945 180.99407,182.05251 0 0 1 355.38066,389.04694 180.99407,182.05251 0 0 1 536.37476,206.99443 180.99407,182.05251 0 0 1 717.36886,389.04694 Z"
         id="path6531"
         inkscape:connector-curvature="0"
         inkscape:export-filename="/Users/forrest/Projects/static/maya/source/images/pages.png"
         inkscape:export-xdpi="29.859514"
         inkscape:export-ydpi="29.859514" />
    </clipPath>
    <clipPath
       clipPathUnits="userSpaceOnUse"
       id="clipPath6533">
      <path
         style="fill:#9f9ed8;fill-opacity:1;stroke:none;stroke-width:2.0014174;stroke-miterlimit:4;stroke-dasharray:none;stroke-opacity:1"
         d="M 717.36886,389.04694 A 180.99407,182.05251 0 0 1 536.37476,571.09945 180.99407,182.05251 0 0 1 355.38066,389.04694 180.99407,182.05251 0 0 1 536.37476,206.99443 180.99407,182.05251 0 0 1 717.36886,389.04694 Z"
         id="path6535"
         inkscape:connector-curvature="0"
         inkscape:export-filename="/Users/forrest/Projects/static/maya/source/images/pages.png"
         inkscape:export-xdpi="29.859514"
         inkscape:export-ydpi="29.859514" />
    </clipPath>
    <clipPath
       clipPathUnits="userSpaceOnUse"
       id="clipPath6537">
      <path
         style="fill:#9f9ed8;fill-opacity:1;stroke:none;stroke-width:2.0014174;stroke-miterlimit:4;stroke-dasharray:none;stroke-opacity:1"
         d="M 717.36886,389.04694 A 180.99407,182.05251 0 0 1 536.37476,571.09945 180.99407,182.05251 0 0 1 355.38066,389.04694 180.99407,182.05251 0 0 1 536.37476,206.99443 180.99407,182.05251 0 0 1 717.36886,389.04694 Z"
         id="path6539"
         inkscape:connector-curvature="0"
         inkscape:export-filename="/Users/forrest/Projects/static/maya/source/images/pages.png"
         inkscape:export-xdpi="29.859514"
         inkscape:export-ydpi="29.859514" />
    </clipPath>
    <clipPath
       clipPathUnits="userSpaceOnUse"
       id="clipPath6541">
      <path
         style="fill:#9f9ed8;fill-opacity:1;stroke:none;stroke-width:2.0014174;stroke-miterlimit:4;stroke-dasharray:none;stroke-opacity:1"
         d="M 717.36886,389.04694 A 180.99407,182.05251 0 0 1 536.37476,571.09945 180.99407,182.05251 0 0 1 355.38066,389.04694 180.99407,182.05251 0 0 1 536.37476,206.99443 180.99407,182.05251 0 0 1 717.36886,389.04694 Z"
         id="path6543"
         inkscape:connector-curvature="0"
         inkscape:export-filename="/Users/forrest/Projects/static/maya/source/images/pages.png"
         inkscape:export-xdpi="29.859514"
         inkscape:export-ydpi="29.859514" />
    </clipPath>
    <clipPath
       clipPathUnits="userSpaceOnUse"
       id="clipPath6545">
      <path
         style="fill:#9f9ed8;fill-opacity:1;stroke:none;stroke-width:2.0014174;stroke-miterlimit:4;stroke-dasharray:none;stroke-opacity:1"
         d="M 717.36886,389.04694 A 180.99407,182.05251 0 0 1 536.37476,571.09945 180.99407,182.05251 0 0 1 355.38066,389.04694 180.99407,182.05251 0 0 1 536.37476,206.99443 180.99407,182.05251 0 0 1 717.36886,389.04694 Z"
         id="path6547"
         inkscape:connector-curvature="0"
         inkscape:export-filename="/Users/forrest/Projects/static/maya/source/images/pages.png"
         inkscape:export-xdpi="29.859514"
         inkscape:export-ydpi="29.859514" />
    </clipPath>
    <clipPath
       clipPathUnits="userSpaceOnUse"
       id="clipPath6549">
      <path
         style="fill:#9f9ed8;fill-opacity:1;stroke:none;stroke-width:2.0014174;stroke-miterlimit:4;stroke-dasharray:none;stroke-opacity:1"
         d="M 717.36886,389.04694 A 180.99407,182.05251 0 0 1 536.37476,571.09945 180.99407,182.05251 0 0 1 355.38066,389.04694 180.99407,182.05251 0 0 1 536.37476,206.99443 180.99407,182.05251 0 0 1 717.36886,389.04694 Z"
         id="path6551"
         inkscape:connector-curvature="0"
         inkscape:export-filename="/Users/forrest/Projects/static/maya/source/images/pages.png"
         inkscape:export-xdpi="29.859514"
         inkscape:export-ydpi="29.859514" />
    </clipPath>
    <clipPath
       clipPathUnits="userSpaceOnUse"
       id="clipPath6553">
      <path
         style="fill:#9f9ed8;fill-opacity:1;stroke:none;stroke-width:2.0014174;stroke-miterlimit:4;stroke-dasharray:none;stroke-opacity:1"
         d="M 717.36886,389.04694 A 180.99407,182.05251 0 0 1 536.37476,571.09945 180.99407,182.05251 0 0 1 355.38066,389.04694 180.99407,182.05251 0 0 1 536.37476,206.99443 180.99407,182.05251 0 0 1 717.36886,389.04694 Z"
         id="path6555"
         inkscape:connector-curvature="0"
         inkscape:export-filename="/Users/forrest/Projects/static/maya/source/images/pages.png"
         inkscape:export-xdpi="29.859514"
         inkscape:export-ydpi="29.859514" />
    </clipPath>
    <clipPath
       clipPathUnits="userSpaceOnUse"
       id="clipPath6557">
      <path
         style="fill:#9f9ed8;fill-opacity:1;stroke:none;stroke-width:2.0014174;stroke-miterlimit:4;stroke-dasharray:none;stroke-opacity:1"
         d="M 717.36886,389.04694 A 180.99407,182.05251 0 0 1 536.37476,571.09945 180.99407,182.05251 0 0 1 355.38066,389.04694 180.99407,182.05251 0 0 1 536.37476,206.99443 180.99407,182.05251 0 0 1 717.36886,389.04694 Z"
         id="path6559"
         inkscape:connector-curvature="0"
         inkscape:export-filename="/Users/forrest/Projects/static/maya/source/images/pages.png"
         inkscape:export-xdpi="29.859514"
         inkscape:export-ydpi="29.859514" />
    </clipPath>
    <clipPath
       clipPathUnits="userSpaceOnUse"
       id="clipPath6561">
      <path
         style="fill:#9f9ed8;fill-opacity:1;stroke:none;stroke-width:2.0014174;stroke-miterlimit:4;stroke-dasharray:none;stroke-opacity:1"
         d="M 717.36886,389.04694 A 180.99407,182.05251 0 0 1 536.37476,571.09945 180.99407,182.05251 0 0 1 355.38066,389.04694 180.99407,182.05251 0 0 1 536.37476,206.99443 180.99407,182.05251 0 0 1 717.36886,389.04694 Z"
         id="path6563"
         inkscape:connector-curvature="0"
         inkscape:export-filename="/Users/forrest/Projects/static/maya/source/images/pages.png"
         inkscape:export-xdpi="29.859514"
         inkscape:export-ydpi="29.859514" />
    </clipPath>
    <clipPath
       clipPathUnits="userSpaceOnUse"
       id="clipPath6565">
      <path
         style="fill:#9f9ed8;fill-opacity:1;stroke:none;stroke-width:2.0014174;stroke-miterlimit:4;stroke-dasharray:none;stroke-opacity:1"
         d="M 717.36886,389.04694 A 180.99407,182.05251 0 0 1 536.37476,571.09945 180.99407,182.05251 0 0 1 355.38066,389.04694 180.99407,182.05251 0 0 1 536.37476,206.99443 180.99407,182.05251 0 0 1 717.36886,389.04694 Z"
         id="path6567"
         inkscape:connector-curvature="0"
         inkscape:export-filename="/Users/forrest/Projects/static/maya/source/images/pages.png"
         inkscape:export-xdpi="29.859514"
         inkscape:export-ydpi="29.859514" />
    </clipPath>
    <clipPath
       clipPathUnits="userSpaceOnUse"
       id="clipPath4797">
      <path
         id="path4799"
         d="M 844.57138,350.88619 A 384.51805,386.76666 0 0 1 460.05329,737.65285 384.51805,386.76666 0 0 1 75.535199,350.88619 384.51805,386.76666 0 0 1 460.05329,-35.880468 384.51805,386.76666 0 0 1 844.57138,350.88619 Z"
         style="fill:#9f9ed8;fill-opacity:1;stroke:none;stroke-width:4.25196838;stroke-miterlimit:4;stroke-dasharray:none;stroke-opacity:1"
         inkscape:connector-curvature="0" />
    </clipPath>
    <clipPath
       clipPathUnits="userSpaceOnUse"
       id="clipPath4801">
      <path
         id="path4803"
         d="M 1407.4423,389.04694 A 180.99408,182.05251 0 0 1 1226.4482,571.09945 180.99408,182.05251 0 0 1 1045.4541,389.04694 180.99408,182.05251 0 0 1 1226.4482,206.99443 180.99408,182.05251 0 0 1 1407.4423,389.04694 Z"
         style="fill:#9f9ed8;fill-opacity:1;stroke:none;stroke-width:2.0014174;stroke-miterlimit:4;stroke-dasharray:none;stroke-opacity:1"
         inkscape:connector-curvature="0" />
    </clipPath>
    <clipPath
       clipPathUnits="userSpaceOnUse"
       id="clipPath4805">
      <path
         id="path4807"
         d="m 1387.5454,375.07949 a 182.05251,180.99408 88.523796 0 1 -176.244,186.65482 182.05251,180.99408 88.523796 0 1 -185.624,-177.32936 182.05251,180.99408 88.523796 0 1 176.244,-186.65482 182.05251,180.99408 88.523796 0 1 185.624,177.32936 z"
         style="fill:#9f9ed8;fill-opacity:1;stroke:none;stroke-width:2.0014174;stroke-miterlimit:4;stroke-dasharray:none;stroke-opacity:1"
         inkscape:connector-curvature="0" />
    </clipPath>
    <clipPath
       clipPathUnits="userSpaceOnUse"
       id="clipPath4809">
      <path
         id="path4811"
         d="M 1407.4423,389.04694 A 180.99408,182.05251 0 0 1 1226.4482,571.09945 180.99408,182.05251 0 0 1 1045.4541,389.04694 180.99408,182.05251 0 0 1 1226.4482,206.99443 180.99408,182.05251 0 0 1 1407.4423,389.04694 Z"
         style="fill:#9f9ed8;fill-opacity:1;stroke:none;stroke-width:2.0014174;stroke-miterlimit:4;stroke-dasharray:none;stroke-opacity:1"
         inkscape:connector-curvature="0" />
    </clipPath>
    <clipPath
       clipPathUnits="userSpaceOnUse"
       id="clipPath4813">
      <path
         id="path4815"
         d="M 1407.4423,389.04694 A 180.99408,182.05251 0 0 1 1226.4482,571.09945 180.99408,182.05251 0 0 1 1045.4541,389.04694 180.99408,182.05251 0 0 1 1226.4482,206.99443 180.99408,182.05251 0 0 1 1407.4423,389.04694 Z"
         style="fill:#9f9ed8;fill-opacity:1;stroke:none;stroke-width:2.0014174;stroke-miterlimit:4;stroke-dasharray:none;stroke-opacity:1"
         inkscape:connector-curvature="0" />
    </clipPath>
  </defs>
  <g
     id="surface549656"
     transform="translate(-262.17264,-149.9558)">
    <g
       id="g4941">
      <g
         id="g4817"
         inkscape:export-filename="/Users/forrest/Projects/static/maya/source/images/pages.png"
         inkscape:export-xdpi="29.84"
         inkscape:export-ydpi="29.84">
        <path
           clip-path="url(#clipPath4813)"
           id="path6232"
           d="M 1407.4423,389.04694 A 180.99408,182.05251 0 0 1 1226.4482,571.09945 180.99408,182.05251 0 0 1 1045.4541,389.04694 180.99408,182.05251 0 0 1 1226.4482,206.99443 180.99408,182.05251 0 0 1 1407.4423,389.04694 Z"
           style="fill:#9f9ed8;fill-opacity:1;stroke:none;stroke-width:2.0014174;stroke-miterlimit:4;stroke-dasharray:none;stroke-opacity:1"
           inkscape:connector-curvature="0" />
        <g
           clip-path="url(#clipPath4809)"
           id="g4623">
          <rect
             ry="3.1753345"
             y="418.66943"
             x="1092.0898"
             height="353.52057"
             width="261.96509"
             id="rect6109"
             style="fill:#000000;fill-opacity:0.09032258;stroke:none;stroke-width:3.59669781;stroke-miterlimit:4;stroke-dasharray:none;stroke-opacity:1"
             clip-path="none"
             transform="rotate(-6.2329172)"
             inkscape:export-filename="/Users/forrest/Projects/static/maya/source/images/pages.png"
             inkscape:export-xdpi="29.859514"
             inkscape:export-ydpi="29.859514" />
          <rect
             style="fill:#e8e5e5;fill-opacity:1;stroke:none;stroke-width:3.59669781;stroke-miterlimit:4;stroke-dasharray:none;stroke-opacity:1"
             id="rect6101"
             width="261.96509"
             height="353.52057"
             x="1097.6998"
             y="424.89951"
             ry="3.7045567"
             clip-path="none"
             transform="rotate(-6.2329172)"
             inkscape:export-filename="/Users/forrest/Projects/static/maya/source/images/pages.png"
             inkscape:export-xdpi="29.859514"
             inkscape:export-ydpi="29.859514" />
        </g>
        <g
           clip-path="url(#clipPath4805)"
           transform="rotate(1.4762038,855.40638,1154.2759)"
           id="g4631">
          <rect
             inkscape:export-ydpi="29.859514"
             inkscape:export-xdpi="29.859514"
             inkscape:export-filename="/Users/forrest/Projects/static/maya/source/images/pages.png"
             transform="rotate(-6.2329172)"
             clip-path="none"
             style="fill:#000000;fill-opacity:0.09032258;stroke:none;stroke-width:3.59669781;stroke-miterlimit:4;stroke-dasharray:none;stroke-opacity:1"
             id="rect4633"
             width="261.96509"
             height="353.52057"
             x="1092.0898"
             y="418.66943"
             ry="3.1753345" />
          <rect
             inkscape:export-ydpi="29.859514"
             inkscape:export-xdpi="29.859514"
             inkscape:export-filename="/Users/forrest/Projects/static/maya/source/images/pages.png"
             transform="rotate(-6.2329172)"
             clip-path="none"
             ry="3.7045567"
             y="424.89951"
             x="1097.6998"
             height="353.52057"
             width="261.96509"
             id="rect4635"
             style="fill:#f4f4f4;fill-opacity:1;stroke:none;stroke-width:3.59669781;stroke-miterlimit:4;stroke-dasharray:none;stroke-opacity:1" />
        </g>
        <g
           clip-path="url(#clipPath4801)"
           id="g4627">
          <rect
             style="fill:#000000;fill-opacity:0.09032258;stroke:none;stroke-width:7.64110756;stroke-miterlimit:4;stroke-dasharray:none;stroke-opacity:1"
             id="rect6111"
             width="556.53925"
             height="751.04688"
             x="351.12119"
             y="205.65822"
             ry="5.6216083"
             clip-path="none"
             transform="matrix(0.47070373,0,0,0.47070373,1009.8994,223.8835)"
             inkscape:export-filename="/Users/forrest/Projects/static/maya/source/images/pages.png"
             inkscape:export-xdpi="29.859514"
             inkscape:export-ydpi="29.859514" />
          <rect
             ry="6.7459302"
             y="218.89383"
             x="363.03955"
             height="751.04688"
             width="556.53925"
             id="rect6103"
             style="fill:#ffffff;fill-opacity:1;stroke:none;stroke-width:7.64110756;stroke-miterlimit:4;stroke-dasharray:none;stroke-opacity:1"
             clip-path="none"
             transform="matrix(0.47070373,0,0,0.47070373,1009.8994,223.8835)"
             inkscape:export-filename="/Users/forrest/Projects/static/maya/source/images/pages.png"
             inkscape:export-xdpi="29.859514"
             inkscape:export-ydpi="29.859514" />
        </g>
        <path
           inkscape:export-ydpi="29.859514"
           inkscape:export-xdpi="29.859514"
           inkscape:export-filename="/Users/forrest/Projects/static/maya/source/images/pages.png"
           transform="matrix(0.47070373,0,0,0.47070373,1009.8994,223.8835)"
           clip-path="url(#clipPath4797)"
           inkscape:connector-curvature="0"
           id="text6113"
           d="m 515.01763,275.50001 0,15.59912 348.54051,0 0,-15.59912 -348.54051,0 z m -90.80712,0.81739 0,12.46728 24.47314,0 0,68.2251 13.62158,0 0,-68.2251 24.47314,0 0,-12.46728 -62.56786,0 z m 90.80712,32.91357 0,15.59912 348.54051,0 0,-15.59912 -348.54051,0 z m 0,34.85303 0,15.59911 348.54051,0 0,-15.59911 -348.54051,0 z m -112.43261,33.73095 0,15.59912 253.59667,0 0,-15.59912 -253.59667,0 z m 292.32421,0 0,15.59912 96.74267,0 0,-15.59912 -96.74267,0 z m 117.41454,0 0,15.59912 51.23437,0 0,-15.59912 -51.23437,0 z m -409.73875,34.85303 0,15.59912 96.89941,0 0,-15.59912 -96.89941,0 z m 152.55175,0 0,15.59912 308.42137,0 0,-15.59912 -308.42137,0 z m -152.55175,33.72802 0,15.60206 277.76659,0 0,-15.60206 -277.76659,0 z m 336.59617,0 0,15.60206 124.37695,0 0,-15.60206 -124.37695,0 z m -336.59617,34.85596 0,15.59912 460.97312,0 0,-15.59912 -460.97312,0 z m 0,33.72802 0,15.60059 460.97312,0 0,-15.60059 -460.97312,0 z m 0,33.73096 0,15.59912 64.70214,0 0,-15.59912 -64.70214,0 z m 96.50243,0 0,15.59912 364.47069,0 0,-15.59912 -364.47069,0 z m -96.50243,33.72803 0,15.60205 128.30272,0 0,-15.60205 -128.30272,0 z m 222.11425,0 0,15.60205 238.85887,0 0,-15.60205 -238.85887,0 z m -222.11425,34.85596 0,15.59911 460.97312,0 0,-15.59911 -460.97312,0 z m 0,33.72802 0,15.60058 244.37548,0 89.04052,0 127.55712,0 0,-15.60058 -127.55712,0 -89.04052,0 -244.37548,0 z m 0,34.85449 0,15.60059 460.97312,0 0,-15.60059 -460.97312,0 z m 0,33.72949 0,15.60058 460.97312,0 0,-15.60058 -460.97312,0 z m 0,34.85449 0,15.59913 460.97312,0 0,-15.59913 -460.97312,0 z m 0,33.72949 0,15.60059 460.97312,0 0,-15.60059 -460.97312,0 z"
           style="font-style:normal;font-variant:normal;font-weight:normal;font-stretch:normal;font-size:115.4389267px;line-height:125%;font-family:Montserrat;-inkscape-font-specification:Montserrat;letter-spacing:0px;word-spacing:0px;fill:#000000;fill-opacity:0.40000001;stroke:none;stroke-width:2.88597322px;stroke-linecap:butt;stroke-linejoin:miter;stroke-opacity:1" />
      </g>
      <g
         id="g6282"
         inkscape:export-filename="/Users/forrest/Projects/static/maya/source/images/sign.png"
         inkscape:export-xdpi="89.843697"
         inkscape:export-ydpi="89.843697"
         transform="translate(728.23418,403.86787)">
        <path
           style="fill:#d8a59e;fill-opacity:1;stroke:none;stroke-width:2.0014174;stroke-miterlimit:4;stroke-dasharray:none;stroke-opacity:1"
           d="M 690.33829,393.81704 A 180.99407,182.05251 0 0 1 509.34421,575.86955 180.99407,182.05251 0 0 1 328.35014,393.81704 180.99407,182.05251 0 0 1 509.34421,211.76453 180.99407,182.05251 0 0 1 690.33829,393.81704 Z"
           id="path6242"
           inkscape:connector-curvature="0"
           inkscape:export-filename="/Users/forrest/Projects/static/maya/source/images/pages.png"
           inkscape:export-xdpi="29.859514"
           inkscape:export-ydpi="29.859514" />
        <rect
           clip-path="url(#clipPath6278)"
           style="fill:#d4e4ff;fill-opacity:1;stroke:none;stroke-width:16.06918144;stroke-miterlimit:4;stroke-dasharray:none;stroke-opacity:1"
           id="rect6254"
           width="192.39372"
           height="275.84283"
           x="-754.40503"
           y="366.55765"
           ry="0"
           transform="matrix(-1,0,-0.3343273,0.94245703,0,0)" />
        <path
           clip-path="url(#clipPath6274)"
           sodipodi:nodetypes="cccc"
           inkscape:connector-curvature="0"
           id="path6262"
           d="m 503.06233,348.2474 12.32274,-27.03052 38.95576,-0.39751 19.87539,27.42803"
           style="fill:none;fill-rule:evenodd;stroke:#f6f9ff;stroke-width:6.74999952;stroke-linecap:butt;stroke-linejoin:miter;stroke-miterlimit:4;stroke-dasharray:none;stroke-opacity:1" />
        <rect
           clip-path="url(#clipPath6270)"
           transform="matrix(1,0,0.3343273,0.94245703,0,0)"
           ry="0"
           y="366.55765"
           x="316.91089"
           height="275.84283"
           width="192.39372"
           id="rect6252"
           style="fill:#f6f9ff;fill-opacity:1;stroke:none;stroke-width:16.06918144;stroke-miterlimit:4;stroke-dasharray:none;stroke-opacity:1" />
        <text
           clip-path="url(#clipPath6266)"
           transform="matrix(1.0058029,0,0.33146652,0.99423057,0,0)"
           sodipodi:linespacing="125%"
           id="text6258"
           y="497.39813"
           x="392.36456"
           style="font-style:normal;font-weight:normal;font-size:171.74836731px;line-height:125%;font-family:sans-serif;letter-spacing:0px;word-spacing:0px;fill:#b6c1d4;fill-opacity:1;stroke:none;stroke-width:4.2937088px;stroke-linecap:butt;stroke-linejoin:miter;stroke-opacity:1"
           xml:space="preserve"><tspan
             style="fill:#b6c1d4;fill-opacity:1;stroke-width:4.2937088px"
             y="497.39813"
             x="392.36456"
             id="tspan6260"
             sodipodi:role="line">!</tspan></text>
      </g>
      <path
         inkscape:export-ydpi="29.859514"
         inkscape:export-xdpi="29.859514"
         inkscape:export-filename="/Users/forrest/Projects/static/maya/source/images/type.png"
         inkscape:connector-curvature="0"
         id="path6309"
         d="M 717.36886,389.04694 A 180.99407,182.05251 0 0 1 536.37476,571.09945 180.99407,182.05251 0 0 1 355.38066,389.04694 180.99407,182.05251 0 0 1 536.37476,206.99443 180.99407,182.05251 0 0 1 717.36886,389.04694 Z"
         style="fill:#b6d89e;fill-opacity:1;stroke:none;stroke-width:2.0014174;stroke-miterlimit:4;stroke-dasharray:none;stroke-opacity:1" />
      <text
         xml:space="preserve"
         style="font-style:normal;font-variant:normal;font-weight:normal;font-stretch:normal;font-size:388.76220703px;line-height:125%;font-family:serif;-inkscape-font-specification:serif;letter-spacing:0px;word-spacing:0px;fill:#547f36;fill-opacity:1;stroke:none;stroke-width:1.49999988;stroke-linecap:butt;stroke-linejoin:miter;stroke-miterlimit:4;stroke-dasharray:none;stroke-opacity:1;"
         x="472.09048"
         y="512.25348"
         id="text6319"
         sodipodi:linespacing="125%"
         clip-path="url(#clipPath6565)"
         inkscape:export-filename="/Users/forrest/Projects/static/maya/source/images/type.png"
         inkscape:export-xdpi="29.859514"
         inkscape:export-ydpi="29.859514"><tspan
           sodipodi:role="line"
           id="tspan6321"
           x="472.09048"
           y="512.25348"
           style="font-style:normal;font-variant:normal;font-weight:normal;font-stretch:normal;font-family:serif;-inkscape-font-specification:serif;stroke-width:1.49999988;stroke-miterlimit:4;stroke-dasharray:none;fill:#547f36;fill-opacity:1;">A</tspan></text>
      <circle
         style="fill:none;fill-opacity:1;stroke:#ffffff;stroke-width:3.74999985;stroke-miterlimit:4;stroke-dasharray:none;stroke-opacity:1"
         id="path6323"
         cx="539.37628"
         cy="488.23303"
         r="13.308638"
         clip-path="url(#clipPath6561)"
         inkscape:export-filename="/Users/forrest/Projects/static/maya/source/images/type.png"
         inkscape:export-xdpi="29.859514"
         inkscape:export-ydpi="29.859514" />
      <circle
         r="28.856342"
         cy="475.36374"
         cx="477.44467"
         id="circle6325"
         style="fill:none;fill-opacity:1;stroke:#ffffff;stroke-width:3.74999985;stroke-miterlimit:4;stroke-dasharray:none;stroke-opacity:1"
         clip-path="url(#clipPath6557)"
         inkscape:export-filename="/Users/forrest/Projects/static/maya/source/images/type.png"
         inkscape:export-xdpi="29.859514"
         inkscape:export-ydpi="29.859514" />
      <circle
         r="21.87574"
         cy="481.741"
         cx="545.21912"
         id="circle6327"
         style="fill:none;fill-opacity:1;stroke:#ffffff;stroke-width:3.74999985;stroke-miterlimit:4;stroke-dasharray:none;stroke-opacity:1"
         clip-path="url(#clipPath6553)"
         inkscape:export-filename="/Users/forrest/Projects/static/maya/source/images/type.png"
         inkscape:export-xdpi="29.859514"
         inkscape:export-ydpi="29.859514" />
      <path
         style="fill:none;fill-rule:evenodd;stroke:#ffffff;stroke-width:3.74999985;stroke-linecap:butt;stroke-linejoin:miter;stroke-miterlimit:4;stroke-dasharray:none;stroke-opacity:1"
         d="m 475.19556,500.61717 0,16.06692"
         id="path6329"
         inkscape:connector-curvature="0"
         clip-path="url(#clipPath6549)"
         inkscape:export-filename="/Users/forrest/Projects/static/maya/source/images/type.png"
         inkscape:export-xdpi="29.859514"
         inkscape:export-ydpi="29.859514" />
      <path
         style="fill:none;fill-rule:evenodd;stroke:#ffffff;stroke-width:3.74999985;stroke-linecap:butt;stroke-linejoin:miter;stroke-miterlimit:4;stroke-dasharray:none;stroke-opacity:1"
         d="m 565.6294,512.5526 -96.17203,0"
         id="path6331"
         inkscape:connector-curvature="0"
         sodipodi:nodetypes="cc"
         clip-path="url(#clipPath6545)"
         inkscape:export-filename="/Users/forrest/Projects/static/maya/source/images/type.png"
         inkscape:export-xdpi="29.859514"
         inkscape:export-ydpi="29.859514" />
      <path
         style="fill:none;fill-rule:evenodd;stroke:#ffffff;stroke-width:3.74999985;stroke-linecap:butt;stroke-linejoin:miter;stroke-miterlimit:4;stroke-dasharray:none;stroke-opacity:1"
         d="M 609.4158,245.73422 488.08934,529.78193"
         id="path6333"
         inkscape:connector-curvature="0"
         sodipodi:nodetypes="cc"
         clip-path="url(#clipPath6541)"
         inkscape:export-filename="/Users/forrest/Projects/static/maya/source/images/type.png"
         inkscape:export-xdpi="29.859514"
         inkscape:export-ydpi="29.859514" />
      <path
         inkscape:connector-curvature="0"
         id="path6335"
         d="M 606.25759,296.22794 504.15627,534.83154"
         style="fill:none;fill-rule:evenodd;stroke:#ffffff;stroke-width:3.74999985;stroke-linecap:butt;stroke-linejoin:miter;stroke-miterlimit:4;stroke-dasharray:none;stroke-opacity:1"
         sodipodi:nodetypes="cc"
         clip-path="url(#clipPath6537)"
         inkscape:export-filename="/Users/forrest/Projects/static/maya/source/images/type.png"
         inkscape:export-xdpi="29.859514"
         inkscape:export-ydpi="29.859514" />
      <path
         style="fill:none;fill-rule:evenodd;stroke:#ffffff;stroke-width:3.74999985;stroke-linecap:butt;stroke-linejoin:miter;stroke-miterlimit:4;stroke-dasharray:none;stroke-opacity:1"
         d="m 654.93422,426.23423 -109.06591,0"
         id="path6337"
         inkscape:connector-curvature="0"
         clip-path="url(#clipPath6533)"
         inkscape:export-filename="/Users/forrest/Projects/static/maya/source/images/type.png"
         inkscape:export-xdpi="29.859514"
         inkscape:export-ydpi="29.859514" />
      <path
         inkscape:connector-curvature="0"
         id="path6339"
         d="m 648.7668,411.62719 -98.51638,0"
         style="fill:none;fill-rule:evenodd;stroke:#ffffff;stroke-width:3.74999985;stroke-linecap:butt;stroke-linejoin:miter;stroke-miterlimit:4;stroke-dasharray:none;stroke-opacity:1"
         sodipodi:nodetypes="cc"
         clip-path="url(#clipPath6529)"
         inkscape:export-filename="/Users/forrest/Projects/static/maya/source/images/type.png"
         inkscape:export-xdpi="29.859514"
         inkscape:export-ydpi="29.859514" />
      <path
         style="fill:none;fill-rule:evenodd;stroke:#ffffff;stroke-width:3.74999985;stroke-linecap:butt;stroke-linejoin:miter;stroke-miterlimit:4;stroke-dasharray:none;stroke-opacity:1"
         d="m 596.37952,296.687 82.27595,198.14213"
         id="path6341"
         inkscape:connector-curvature="0"
         sodipodi:nodetypes="cc"
         clip-path="url(#clipPath6525)"
         inkscape:export-filename="/Users/forrest/Projects/static/maya/source/images/type.png"
         inkscape:export-xdpi="29.859514"
         inkscape:export-ydpi="29.859514" />
      <path
         style="fill:none;fill-rule:evenodd;stroke:#ffffff;stroke-width:3.74999985;stroke-linecap:butt;stroke-linejoin:miter;stroke-miterlimit:4;stroke-dasharray:none;stroke-opacity:1"
         d="m 556.21878,503.25674 0,13.42735"
         id="path6345"
         inkscape:connector-curvature="0"
         clip-path="url(#clipPath6521)"
         inkscape:export-filename="/Users/forrest/Projects/static/maya/source/images/type.png"
         inkscape:export-xdpi="29.859514"
         inkscape:export-ydpi="29.859514" />
      <path
         style="fill:none;fill-rule:evenodd;stroke:#ffffff;stroke-width:3.74999985;stroke-linecap:butt;stroke-linejoin:miter;stroke-miterlimit:4;stroke-dasharray:none;stroke-opacity:1"
         d="m 602.98266,248.99456 16.72428,0"
         id="path6397"
         inkscape:connector-curvature="0"
         clip-path="url(#clipPath6517)"
         inkscape:export-filename="/Users/forrest/Projects/static/maya/source/images/type.png"
         inkscape:export-xdpi="29.859514"
         inkscape:export-ydpi="29.859514" />
      <path
         style="fill:none;fill-rule:evenodd;stroke:#ffffff;stroke-width:3.74999985;stroke-linecap:butt;stroke-linejoin:miter;stroke-miterlimit:4;stroke-dasharray:none;stroke-opacity:1"
         d="M 612.96101,246.04321 719.49049,500.13992"
         id="path6399"
         inkscape:connector-curvature="0"
         sodipodi:nodetypes="cc"
         clip-path="url(#clipPath6513)"
         inkscape:export-filename="/Users/forrest/Projects/static/maya/source/images/type.png"
         inkscape:export-xdpi="29.859514"
         inkscape:export-ydpi="29.859514" />
      <circle
         style="fill:none;fill-opacity:1;stroke:#ffffff;stroke-width:3.74999985;stroke-miterlimit:4;stroke-dasharray:none;stroke-opacity:1"
         id="path6403"
         cx="652.76947"
         cy="481.76474"
         r="23.179991"
         clip-path="url(#clipPath6509)"
         inkscape:export-filename="/Users/forrest/Projects/static/maya/source/images/type.png"
         inkscape:export-xdpi="29.859514"
         inkscape:export-ydpi="29.859514" />
      <path
         style="fill:none;fill-rule:evenodd;stroke:#ffffff;stroke-width:3.74999985;stroke-linecap:butt;stroke-linejoin:miter;stroke-miterlimit:4;stroke-dasharray:none;stroke-opacity:1"
         d="m 646.81981,514.94147 c 0,-0.39751 0,-13.8134 0,-13.8134"
         id="path6405"
         inkscape:connector-curvature="0"
         clip-path="url(#clipPath6505)"
         inkscape:export-filename="/Users/forrest/Projects/static/maya/source/images/type.png"
         inkscape:export-xdpi="29.859514"
         inkscape:export-ydpi="29.859514" />
      <path
         style="fill:none;fill-rule:evenodd;stroke:#ffffff;stroke-width:3.74999985;stroke-linecap:butt;stroke-linejoin:miter;stroke-miterlimit:4;stroke-dasharray:none;stroke-opacity:1"
         d="m 643.14286,512.05954 109.31463,0"
         id="path6407"
         inkscape:connector-curvature="0"
         clip-path="url(#clipPath6501)"
         inkscape:export-filename="/Users/forrest/Projects/static/maya/source/images/type.png"
         inkscape:export-xdpi="29.859514"
         inkscape:export-ydpi="29.859514" />
    </g>
  </g>
</svg>
