<?xml version="1.0" encoding="UTF-8" standalone="no"?>
<!-- Created with Inkscape (http://www.inkscape.org/) -->

<svg
   xmlns:dc="http://purl.org/dc/elements/1.1/"
   xmlns:cc="http://creativecommons.org/ns#"
   xmlns:rdf="http://www.w3.org/1999/02/22-rdf-syntax-ns#"
   xmlns:svg="http://www.w3.org/2000/svg"
   xmlns="http://www.w3.org/2000/svg"
   xmlns:xlink="http://www.w3.org/1999/xlink"
   xmlns:sodipodi="http://sodipodi.sourceforge.net/DTD/sodipodi-0.dtd"
   xmlns:inkscape="http://www.inkscape.org/namespaces/inkscape"
   width="500.87"
   height="235.49001"
   id="svg2"
   version="1.1"
   inkscape:version="0.91+devel+osxmenu r12896"
   sodipodi:docname="logo.svg"
   inkscape:export-filename="/Users/forrest/Projects/static/maya/source/images/logoW.png"
   inkscape:export-xdpi="57.49995"
   inkscape:export-ydpi="57.49995">
  <defs
     id="defs4">
    <linearGradient
       id="linearGradient4017">
      <stop
         style="stop-color:#ffdd00;stop-opacity:1;"
         offset="0"
         id="stop4019" />
      <stop
         style="stop-color:#ffa600;stop-opacity:1;"
         offset="1"
         id="stop4021" />
    </linearGradient>
    <radialGradient
       inkscape:collect="always"
       xlink:href="#linearGradient4017"
       id="radialGradient3063"
       gradientUnits="userSpaceOnUse"
       gradientTransform="matrix(1,0,0,1.1756065,0,-109.6345)"
       cx="974.11774"
       cy="624.31921"
       fx="974.11774"
       fy="624.31921"
       r="46.026775" />
    <radialGradient
       inkscape:collect="always"
       xlink:href="#linearGradient4017"
       id="radialGradient3065"
       gradientUnits="userSpaceOnUse"
       gradientTransform="matrix(1,0,0,1.1756065,0,-109.6345)"
       cx="974.11774"
       cy="624.31921"
       fx="974.11774"
       fy="624.31921"
       r="46.026775" />
    <radialGradient
       inkscape:collect="always"
       xlink:href="#linearGradient4017"
       id="radialGradient3907"
       gradientUnits="userSpaceOnUse"
       gradientTransform="matrix(1,0,0,1.1756065,0,-109.6345)"
       cx="974.11774"
       cy="624.31921"
       fx="974.11774"
       fy="624.31921"
       r="46.026775" />
    <radialGradient
       inkscape:collect="always"
       xlink:href="#linearGradient4017"
       id="radialGradient3909"
       gradientUnits="userSpaceOnUse"
       gradientTransform="matrix(1,0,0,1.1756065,0,-109.6345)"
       cx="974.11774"
       cy="624.31921"
       fx="974.11774"
       fy="624.31921"
       r="46.026775" />
    <radialGradient
       inkscape:collect="always"
       xlink:href="#linearGradient4017"
       id="radialGradient3911"
       gradientUnits="userSpaceOnUse"
       gradientTransform="matrix(1.0310221,0,0,0.82791145,-538.74516,-460.11387)"
       cx="764.02747"
       cy="624.07544"
       fx="764.02747"
       fy="624.07544"
       r="67.6875" />
    <radialGradient
       inkscape:collect="always"
       xlink:href="#linearGradient4017"
       id="radialGradient3913"
       gradientUnits="userSpaceOnUse"
       gradientTransform="matrix(1.0310221,0,0,0.92214657,-538.74516,-518.9567)"
       cx="891.62512"
       cy="623.77234"
       fx="891.62512"
       fy="623.77234"
       r="61.109375" />
    <radialGradient
       inkscape:collect="always"
       xlink:href="#linearGradient4017"
       id="radialGradient3915"
       gradientUnits="userSpaceOnUse"
       gradientTransform="matrix(1,0,0,1.1756065,0,-109.6345)"
       cx="974.11774"
       cy="624.31921"
       fx="974.11774"
       fy="624.31921"
       r="46.026775" />
    <radialGradient
       inkscape:collect="always"
       xlink:href="#linearGradient4017"
       id="radialGradient3917"
       gradientUnits="userSpaceOnUse"
       gradientTransform="matrix(1,0,0,1.1756065,0,-109.6345)"
       cx="974.11774"
       cy="624.31921"
       fx="974.11774"
       fy="624.31921"
       r="46.026775" />
    <radialGradient
       inkscape:collect="always"
       xlink:href="#linearGradient4017"
       id="radialGradient3919"
       gradientUnits="userSpaceOnUse"
       gradientTransform="matrix(1.3926111,2.5467525e-7,-2.7446034e-7,1.5007997,-920.50169,-889.62039)"
       cx="1055.7749"
       cy="640.56238"
       fx="1055.7749"
       fy="640.56238"
       r="61.109386" />
    <radialGradient
       inkscape:collect="always"
       xlink:href="#linearGradient4017"
       id="radialGradient3922"
       gradientUnits="userSpaceOnUse"
       gradientTransform="matrix(1.0310221,0,0,1.2120763,-538.74516,-699.90582)"
       cx="974.11774"
       cy="624.31921"
       fx="974.11774"
       fy="624.31921"
       r="46.026775" />
    <radialGradient
       inkscape:collect="always"
       xlink:href="#linearGradient4017"
       id="radialGradient3925"
       gradientUnits="userSpaceOnUse"
       gradientTransform="matrix(1.0310221,0,0,1.2120763,-538.74516,-699.90582)"
       cx="974.11774"
       cy="624.31921"
       fx="974.11774"
       fy="624.31921"
       r="46.026775" />
    <radialGradient
       inkscape:collect="always"
       xlink:href="#linearGradient4017"
       id="radialGradient3931"
       gradientUnits="userSpaceOnUse"
       gradientTransform="matrix(1.0310221,0,0,1.2120763,-538.74516,-699.90582)"
       cx="974.11774"
       cy="624.31921"
       fx="974.11774"
       fy="624.31921"
       r="46.026775" />
    <radialGradient
       inkscape:collect="always"
       xlink:href="#linearGradient4017"
       id="radialGradient3934"
       gradientUnits="userSpaceOnUse"
       gradientTransform="matrix(1.0310221,0,0,1.2120763,-538.74516,-699.90582)"
       cx="974.11774"
       cy="624.31921"
       fx="974.11774"
       fy="624.31921"
       r="46.026775" />
    <radialGradient
       inkscape:collect="always"
       xlink:href="#linearGradient4017"
       id="radialGradient3959"
       gradientUnits="userSpaceOnUse"
       gradientTransform="matrix(1.0310221,0,0,1.2120763,-538.74516,-269.90582)"
       cx="974.11774"
       cy="624.31921"
       fx="974.11774"
       fy="624.31921"
       r="46.026775" />
  </defs>
  <sodipodi:namedview
     id="base"
     pagecolor="#ffffff"
     bordercolor="#666666"
     borderopacity="1.0"
     inkscape:pageopacity="0"
     inkscape:pageshadow="2"
     inkscape:zoom="0.175"
     inkscape:cx="-774.36258"
     inkscape:cy="-22.680529"
     inkscape:document-units="px"
     inkscape:current-layer="layer1"
     showgrid="false"
     showguides="true"
     inkscape:guide-bbox="true"
     inkscape:window-width="1280"
     inkscape:window-height="751"
     inkscape:window-x="0"
     inkscape:window-y="23"
     inkscape:window-maximized="0"
     fit-margin-top="20"
     fit-margin-left="20"
     fit-margin-right="20"
     fit-margin-bottom="20" />
  <metadata
     id="metadata7">
    <rdf:RDF>
      <cc:Work
         rdf:about="">
        <dc:format>image/svg+xml</dc:format>
        <dc:type
           rdf:resource="http://purl.org/dc/dcmitype/StillImage" />
        <dc:title />
      </cc:Work>
    </rdf:RDF>
  </metadata>
  <g
     inkscape:label="Layer 1"
     inkscape:groupmode="layer"
     id="layer1"
     transform="translate(-144.2628,-399.7785)">
    <image
       style="opacity:0.44036698"
       width="526.28571"
       height="198.88704"
       xlink:href="file:///Users/forrest/Desktop/Untitled-1.jpg"
       id="image3790"
       x="1399.8392"
       y="410.5162" />
    <path
       sodipodi:nodetypes="ccccc"
       inkscape:connector-curvature="0"
       id="path3792"
       d="m 1428.1362,65.821881 37.5,-90 25.1658,39.28572 25.9056,-39.28572 31.0714,85.71429"
       style="opacity:0.62844083;fill:none;stroke:#000000;stroke-width:28;stroke-linecap:butt;stroke-linejoin:miter;stroke-miterlimit:4;stroke-opacity:1;stroke-dasharray:none" />
    <path
       inkscape:connector-curvature="0"
       id="path3794"
       d="m 1558.1362,61.107601 52.5,-96.07143 55,89.64285"
       style="opacity:0.62844083;fill:none;stroke:#000000;stroke-width:28.20000076;stroke-linecap:butt;stroke-linejoin:miter;stroke-miterlimit:4;stroke-opacity:1;stroke-dasharray:none" />
    <path
       inkscape:connector-curvature="0"
       id="path3796"
       d="m 1583.4933,19.393311 57.8571,0"
       style="opacity:0.62844083;fill:none;stroke:#000000;stroke-width:21.9520092;stroke-linecap:butt;stroke-linejoin:miter;stroke-miterlimit:4;stroke-opacity:1;stroke-dasharray:none" />
    <path
       sodipodi:nodetypes="cc"
       inkscape:connector-curvature="0"
       id="path3798"
       d="m 1705.9933,58.499551 0,-64.6767403"
       style="opacity:0.62844083;fill:none;stroke:#000000;stroke-width:28;stroke-linecap:butt;stroke-linejoin:miter;stroke-miterlimit:4;stroke-opacity:1;stroke-dasharray:none" />
    <path
       sodipodi:nodetypes="cc"
       inkscape:connector-curvature="0"
       id="path3800"
       d="m 1705.9933,-3.1066893 c 8.5656,-22.7048597 20.2826,-39.9664797 39.2857,-44.6428597"
       style="opacity:0.62844083;fill:none;stroke:#000000;stroke-width:28;stroke-linecap:butt;stroke-linejoin:miter;stroke-miterlimit:4;stroke-opacity:1;stroke-dasharray:none" />
    <path
       style="opacity:0.62844083;fill:none;stroke:#000000;stroke-width:28;stroke-linecap:butt;stroke-linejoin:miter;stroke-miterlimit:4;stroke-opacity:1;stroke-dasharray:none"
       d="m 1705.6362,-4.5352593 c -8.5656,-22.7048597 -20.2826,-39.9664797 -39.2858,-44.6428597"
       id="path3802"
       inkscape:connector-curvature="0"
       sodipodi:nodetypes="cc" />
    <path
       style="opacity:0.62844083;fill:none;stroke:#000000;stroke-width:28.20000076;stroke-linecap:butt;stroke-linejoin:miter;stroke-miterlimit:4;stroke-opacity:1;stroke-dasharray:none"
       d="m 1746.0245,61.107601 52.5,-96.07143 55,89.64285"
       id="path3804"
       inkscape:connector-curvature="0" />
    <path
       style="opacity:0.62844083;fill:none;stroke:#000000;stroke-width:21.9520092;stroke-linecap:butt;stroke-linejoin:miter;stroke-miterlimit:4;stroke-opacity:1;stroke-dasharray:none"
       d="m 1771.3816,19.393311 57.8572,0"
       id="path3806"
       inkscape:connector-curvature="0" />
    <path
       style="opacity:0.62844083;fill:#fffc00;fill-opacity:1;stroke:#000000;stroke-width:0;stroke-linecap:butt;stroke-linejoin:miter;stroke-miterlimit:4;stroke-opacity:1;stroke-dasharray:none;stroke-dashoffset:0"
       d="m 1323.5848,781.28571 0,62.875 527.8438,0 0,-62.875 -527.8438,0 z"
       id="rect3808"
       inkscape:connector-curvature="0" />
    <path
       style="fill:none;stroke:#000000;stroke-width:11.30000019;stroke-linecap:butt;stroke-linejoin:miter;stroke-miterlimit:4;stroke-opacity:1;stroke-dasharray:none"
       d="m 1451.1655,298.64282 c -30.4402,0.97141 -65.9778,30.76505 0.3524,37.64793 0.4464,-8.57143 0.2678,-15.71428 0.2678,-15.71428"
       id="path3862"
       inkscape:connector-curvature="0"
       sodipodi:nodetypes="ccc" />
    <path
       style="fill:none;stroke:#000000;stroke-width:11.30000019;stroke-linecap:butt;stroke-linejoin:miter;stroke-miterlimit:4;stroke-opacity:1;stroke-dasharray:none"
       d="m 1483.0357,341.64789 0,-43.39285 c 28.2505,-0.7235 37.4018,8.99805 12.6786,20.89286 l 22.5,18.75"
       id="path3864"
       inkscape:connector-curvature="0"
       sodipodi:nodetypes="cccc" />
    <path
       style="fill:none;stroke:#000000;stroke-width:11.30000019;stroke-linecap:butt;stroke-linejoin:miter;stroke-miterlimit:4;stroke-opacity:1;stroke-dasharray:none"
       d="m 1533.2143,337.54075 27.5,-36.96428 30.7143,37.5"
       id="path3866"
       inkscape:connector-curvature="0" />
    <path
       style="fill:none;stroke:#000000;stroke-width:11.30000019;stroke-linecap:butt;stroke-linejoin:miter;stroke-miterlimit:4;stroke-opacity:1;stroke-dasharray:none"
       d="m 1545.1786,321.11218 32.1428,0"
       id="path3868"
       inkscape:connector-curvature="0" />
    <path
       style="fill:none;stroke:#000000;stroke-width:11.30000019;stroke-linecap:butt;stroke-linejoin:miter;stroke-miterlimit:4;stroke-opacity:1;stroke-dasharray:none"
       d="m 1614.4643,341.64789 0,-44.10714 c 14.9856,-0.17857 47.4767,13.92857 4.4643,25"
       id="path3870"
       inkscape:connector-curvature="0"
       sodipodi:nodetypes="ccc" />
    <path
       style="fill:none;stroke:#000000;stroke-width:11.30000019;stroke-linecap:butt;stroke-linejoin:miter;stroke-miterlimit:4;stroke-opacity:1;stroke-dasharray:none"
       d="m 1668.0357,291.46932 0,50.17857"
       id="path3872"
       inkscape:connector-curvature="0"
       sodipodi:nodetypes="cc" />
    <path
       style="fill:none;stroke:#000000;stroke-width:11.30000019;stroke-linecap:butt;stroke-linejoin:miter;stroke-miterlimit:4;stroke-opacity:1;stroke-dasharray:none"
       d="m 1668.3929,315.75504 46.25,0"
       id="path3874"
       inkscape:connector-curvature="0" />
    <path
       style="fill:none;stroke:#000000;stroke-width:11.30000019;stroke-linecap:butt;stroke-linejoin:miter;stroke-miterlimit:4;stroke-opacity:1;stroke-dasharray:none"
       d="m 1714.1071,291.64789 0,50"
       id="path3876"
       inkscape:connector-curvature="0"
       sodipodi:nodetypes="cc" />
    <path
       inkscape:connector-curvature="0"
       id="path3878"
       d="m 1749.4642,291.64789 0,50"
       style="fill:none;stroke:#000000;stroke-width:11.30000019;stroke-linecap:butt;stroke-linejoin:miter;stroke-miterlimit:4;stroke-opacity:1;stroke-dasharray:none"
       sodipodi:nodetypes="cc" />
    <path
       style="fill:none;stroke:#000000;stroke-width:11.30000019;stroke-linecap:butt;stroke-linejoin:miter;stroke-miterlimit:4;stroke-opacity:1;stroke-dasharray:none"
       d="m 1814.6429,298.25504 c -48.5372,5.56374 -52.8498,36.57482 2.6785,36.42857"
       id="path3880"
       inkscape:connector-curvature="0"
       sodipodi:nodetypes="cc" />
    <path
       style="fill:none;stroke:#000000;stroke-width:11.30000019;stroke-linecap:butt;stroke-linejoin:miter;stroke-miterlimit:4;stroke-opacity:1;stroke-dasharray:none"
       d="m 1859.1071,297.71932 c -16.9123,1.62155 -30.4789,8.73072 -10.1785,17.5 20.3004,8.76928 13.62,15.30803 -9.1072,20.35715"
       id="path3882"
       inkscape:connector-curvature="0"
       sodipodi:nodetypes="czc" />
    <path
       inkscape:connector-curvature="0"
       id="path3039"
       d="m 282.8744,412.69814 -8.65625,14.15625 -15.84375,25.9375 -7.78125,12.71875 -7.40625,-12.46875 -14.875,-25.09375 -8.125,-13.71875 -5.71875,14.875 -10.625,27.5 -32.21875,83.5625 -4.03125,10.53125 11.25,0 31.25,0 5.3125,0 1.90625,-4.96875 11.28125,-29.1875 2.9375,4.9375 11.96875,20.25 6.5625,11.0625 6.6875,-11 12.21875,-20.03125 2.25,-3.6875 9.1875,27.34375 1.75,5.28125 5.5625,0 30.71875,0 35.28125,0 5.59375,0 1.75,-5.3125 3.375,-10.25 30.9375,0 3.6875,10.40625 1.8125,5.15625 5.46875,0 36.84375,0 0.0937,0 13.25,0 16.875,0 6.46875,0 6.5625,0 1.15625,0 35.375,0 5.59375,0 1.75,-5.3125 3.375,-10.25 30.90625,0 3.6875,10.40625 1.84375,5.15625 5.46875,0 36.84375,0 13.34375,0 -6.62495,-11.5625 -51.5,-90.125 -12.90625,-22.59375 -6.875,-12 -6.625,12.125 -12.46875,22.8125 -41.1875,75.375 0,-28 c 4.69816,-18.02234 14.7191,-27.97946 21.90625,-29.40625 l 7.65625,-1.53125 -1.59375,-7.59375 -5.5,-26.9375 -1.625,-7.84375 -7.8125,1.90625 c -14.51178,3.57109 -25.87849,11.87575 -34.8125,22.25 -9.10437,-11.04782 -20.79478,-19.95342 -35.96875,-23.6875 l -7.90625,-1.96875 -1.53125,8 -5.53125,28.34375 -1.53125,7.84375 7.875,1.28125 c 8.6551,1.40979 18.52088,10.22496 22.0625,28.5625 l 0,31.59375 -44.84375,-78.53125 -12.9375,-22.59375 -6.84375,-12 -6.65625,12.125 -12.46875,22.8125 -39.875,72.96875 -21.6875,-64.6875 -9.8125,-29.21875 -5.28125,-15.71875 z m 151.03125,28.84375 c 10.50913,4.5599 18.61548,12.55944 25.34375,22.90625 l 6.34375,9.78125 6.53125,-9.6875 c 6.59543,-9.74158 14.47649,-17.24043 24.5625,-21.59375 l 2.40625,11.8125 c -12.58714,6.0148 -22.06545,20.27087 -26.71875,38.96875 l -0.25,0.90625 0,0.96875 0,39.625 -13.40625,0 0,-40.09375 0,-0.71875 -0.125,-0.71875 c -3.59728,-19.56806 -14.00627,-33.59711 -27.21875,-39.21875 l 2.53125,-12.9375 z m -54.9375,4.5625 6.03125,10.5625 44.90625,78.5625 -18.09375,0 -3.6875,-10.40625 -1.8125,-5.15625 -5.46875,0 -42,0 -5.59375,0 -1.75,5.3125 -3.375,10.25 -17.90625,0 42.90625,-78.46875 5.84375,-10.65625 z m 169.21875,0 6.0625,10.5625 44.875,78.5625 -18.0625,0 -3.6875,-10.40625 -1.84375,-5.15625 -5.46875,0 -41.96875,0 -5.59375,0 -1.75,5.3125 -3.375,10.25 -17.90625,0 42.875,-78.46875 5.84375,-10.65625 z m -269.40625,2.96875 4.5,13.46875 24.40625,72.6875 -14.40625,0 -12.6875,-37.8125 -5.28125,-15.75 -8.65625,14.1875 -10.90625,17.84375 -5.5,9.0625 -5.4375,-9.15625 -11.03125,-18.65625 -8.125,-13.71875 -5.75,14.875 -15.09375,39.125 -14.6875,0 28.15625,-73.0625 4.875,-12.625 6.71875,11.375 0,0.0312 14,23.53125 6.53125,11.03125 6.71875,-10.96875 14.4375,-23.6875 7.21875,-11.78125 z m 100.4375,24.9375 -6.625,12.15625 -8.15625,14.90625 -6.25,11.4375 13.03125,0 16.65625,0 13.3125,0 -6.59375,-11.5625 -8.5,-14.90625 -6.875,-12.03125 z m 169.25,0 -6.625,12.15625 -8.15625,14.90625 -6.25,11.4375 13.03125,0 16.65625,0 13.3125,0 -6.59375,-11.5625 -8.5,-14.90625 -6.875,-12.03125 z"
       style="font-size:medium;font-style:normal;font-variant:normal;font-weight:normal;font-stretch:normal;text-indent:0;text-align:start;text-decoration:none;line-height:normal;letter-spacing:normal;word-spacing:normal;text-transform:none;direction:ltr;block-progression:tb;writing-mode:lr-tb;text-anchor:start;baseline-shift:baseline;color:#000000;fill:#ffffff;fill-opacity:0.5051546;fill-rule:nonzero;stroke:none;stroke-width:15;marker:none;visibility:visible;display:inline;overflow:visible;enable-background:accumulate;font-family:Sans;-inkscape-font-specification:Sans" />
    <path
       sodipodi:nodetypes="cccccccccccccccccccccccccccccccccccssscccccccscsccscccccsccccccccccccccccscccssscccccccccscssccccccscsccccsccccccsccccccccc"
       inkscape:connector-curvature="0"
       id="path3049"
       d="m 314.04336,560.16774 -4.44628,5.99281 -28.35311,38.1156 9.34364,6.92718 10.82573,-14.56319 27.45097,0 12.56558,15.33646 9.02144,-7.37825 -31.67166,-38.66333 z m 105.03538,0.0644 0,51.74442 11.66344,0 0,-20.8782 35.86028,0 0,20.8782 11.63117,0 0,-51.55111 -11.63117,0 0,19.00947 -35.86028,0 0,-19.20278 z m 83.96391,0.19331 0,51.55111 11.66344,0 0,-51.55111 z m -133.4208,0.25776 -5.76723,0.0644 0,5.73506 0,45.49385 11.66343,0 0,-14.9176 0.22559,0.86992 c 11.54735,-2.9723 18.50437,-5.89553 22.90797,-10.47132 2.20185,-2.28789 3.70199,-5.48465 3.54414,-8.69925 -0.15785,-3.21459 -1.73531,-5.81848 -3.54414,-7.73266 -3.61775,-3.82838 -8.52273,-6.03611 -13.69331,-7.73267 -5.17037,-1.69655 -10.53478,-2.66698 -15.33645,-2.60977 z m 251.73058,0.19332 c -4.68816,0.44949 -9.17372,1.26159 -13.11326,2.48089 -3.93984,1.21931 -7.36758,2.65892 -10.14917,5.54175 -1.39085,1.44141 -2.64849,3.47637 -2.93202,5.92837 -0.28333,2.45201 0.5318,4.94061 1.80429,6.79831 2.54507,3.7154 6.4344,5.97386 12.14678,8.44149 4.14862,1.79212 6.61617,3.38444 7.92598,4.44628 -0.70522,0.47037 -1.60726,1.04575 -2.96419,1.61097 -3.09647,1.28985 -7.64946,2.64174 -13.30658,3.89856 l 2.51302,11.37346 c 6.05911,-1.34606 11.17308,-2.78987 15.30428,-4.51072 4.1312,-1.72086 7.54842,-3.45489 9.79471,-7.2816 1.12309,-1.91336 1.64737,-4.55956 1.12773,-6.89496 -0.51984,-2.3354 -1.78593,-4.16174 -3.25421,-5.67062 -2.93666,-3.01776 -6.95198,-5.25726 -12.53342,-7.66823 -3.05976,-1.3218 -4.70929,-2.44981 -5.79949,-3.28638 0.92142,-0.49966 2.15782,-1.07989 3.76972,-1.57875 2.93305,-0.90776 6.7633,-1.6434 10.79346,-2.02983 z m -384.50684,0.51551 c -0.91607,0.004 -1.85017,0.008 -2.80315,0.0322 l -5.70279,0.12888 0,5.67062 0,44.75281 11.66344,0 0,-21.65147 3.51197,2.93197 23.198,19.33167 7.47491,-8.95701 -16.72194,-13.9188 c 2.84335,-1.83425 5.24079,-3.72487 7.02383,-5.83172 1.59458,-1.8842 2.85707,-4.0464 3.25422,-6.6372 0.39694,-2.5908 -0.34467,-5.45995 -1.80429,-7.50713 -2.91954,-4.09435 -7.29912,-5.6831 -12.56568,-6.86274 -4.60805,-1.03219 -10.11629,-1.50767 -16.52852,-1.48209 z m 338.56192,0.0644 c -13.10934,1.5027 -23.46719,4.69065 -30.9951,9.05366 -7.5279,4.36301 -12.8389,10.22417 -13.01665,17.55959 -0.17775,7.33543 5.41585,13.45578 13.43556,17.04409 8.01949,3.5883 19.16896,5.54865 34.02372,5.50952 l -0.032,-11.66344 c -13.77074,0.0363 -23.53854,-1.935 -29.22298,-4.4785 -5.68464,-2.5435 -6.60565,-4.76565 -6.57276,-6.12169 0.033,-1.35604 1.62571,-4.5243 7.21715,-7.76489 5.59123,-3.24058 14.57216,-6.2061 26.48428,-7.57157 l -1.32095,-11.56677 z M 203.724,561.81085 c -8.75884,0.27951 -17.57191,2.56331 -25.06672,6.02503 -7.49481,3.46173 -13.86034,7.85932 -17.17302,14.20878 -1.65613,3.17472 -2.37104,7.15793 -1.2565,10.92239 1.11453,3.76446 3.80612,6.91027 7.41047,9.37585 7.2088,4.93118 18.4421,8.06723 36.02133,9.89137 l 6.08953,0.64439 0.32209,-6.12169 c 0.47334,-9.08579 0.29003,-16.65745 0.29003,-16.65745 l -11.66344,0.28997 c 0,0 -0.11774,5.51113 -0.16105,9.37586 -12.65507,-1.83903 -20.73911,-4.60266 -24.32573,-7.05606 -2.0873,-1.4278 -2.63611,-2.49733 -2.80314,-3.06084 -0.16682,-0.56352 -0.19208,-1.01979 0.41891,-2.19093 1.22196,-2.34226 5.63072,-6.25233 11.6956,-9.05366 6.06509,-2.80133 13.62259,-4.74054 20.55611,-4.96179 z m 171.79405,11.11571 c 1.90451,0.34886 3.93243,0.82668 5.83167,1.44987 4.07027,1.33553 7.68318,3.46015 8.82823,4.67182 0.15053,0.15936 0.17424,0.19104 0.19322,0.19332 -0.0286,0.0293 -0.0279,0.0245 -0.12888,0.12887 -1.18052,1.22687 -5.98859,3.91191 -14.72424,6.44389 z m -135.51496,0.25775 c 4.26874,0.14022 8.10651,0.45416 10.82573,1.06324 2.91305,0.6525 4.3005,1.4549 4.9618,1.86873 -0.0959,0.1503 2e-4,0.0291 -0.19332,0.25776 -1.30064,1.53682 -4.92354,4.28204 -10.89017,7.15271 l -4.70404,2.25536 z m 74.49135,5.89616 4.83291,5.89616 -9.21476,0 z"
       style="font-size:medium;font-style:normal;font-variant:normal;font-weight:normal;font-stretch:normal;text-indent:0;text-align:start;text-decoration:none;line-height:normal;letter-spacing:normal;word-spacing:normal;text-transform:none;direction:ltr;block-progression:tb;writing-mode:lr-tb;text-anchor:start;baseline-shift:baseline;color:#000000;fill:#ffffff;fill-opacity:1;stroke:none;stroke-width:11.30000019000000044;marker:none;visibility:visible;display:inline;overflow:visible;enable-background:accumulate;font-family:Sans;-inkscape-font-specification:Sans" />
    <path
       inkscape:connector-curvature="0"
       id="path3051"
       d="m 281.17127,430.52609 -15.85197,25.93121 -14.46653,23.70357 -13.98323,-23.52953 -14.85317,-25.09584 -10.60019,27.49752 -32.21944,83.57159 31.25285,0 17.01187,-44.06565 11.05127,18.65654 11.98563,20.22287 12.21117,-20.04883 10.89017,-17.85599 14.46653,43.09106 30.70512,0 -27.80537,-82.87546 -9.79471,-29.20306 z"
       style="font-size:medium;font-style:normal;font-variant:normal;font-weight:normal;font-stretch:normal;text-indent:0;text-align:start;text-decoration:none;line-height:normal;letter-spacing:normal;word-spacing:normal;text-transform:none;direction:ltr;block-progression:tb;writing-mode:lr-tb;text-anchor:start;baseline-shift:baseline;color:#000000;fill:#ffffff;fill-opacity:1;stroke:none;stroke-width:28;marker:none;visibility:visible;display:inline;overflow:visible;enable-background:accumulate;font-family:Sans;-inkscape-font-specification:Sans" />
    <path
       sodipodi:nodetypes="cccccccccccccc"
       inkscape:connector-curvature="0"
       id="path3053"
       d="m 379.13848,429.90101 -12.46892,22.81136 -49.13465,89.89224 36.53865,0 5.12109,-15.56199 41.98193,0 5.50772,15.56199 36.86084,0 -51.48667,-90.11778 z m 0.50571,56.48149 12.06905,21.16654 -23.63521,0 z"
       style="font-size:medium;font-style:normal;font-variant:normal;font-weight:normal;font-stretch:normal;text-indent:0;text-align:start;text-decoration:none;line-height:normal;letter-spacing:normal;word-spacing:normal;text-transform:none;direction:ltr;block-progression:tb;writing-mode:lr-tb;text-anchor:start;baseline-shift:baseline;color:#000000;fill:#ffffff;fill-opacity:1;stroke:none;stroke-width:28.20000076000000178;marker:none;visibility:visible;display:inline;overflow:visible;enable-background:accumulate;font-family:Sans;-inkscape-font-specification:Sans" />
    <g
       transform="matrix(1.0310221,0,0,1.0310221,-538.74516,-156.87023)"
       id="g3055"
       style="fill:#ffffff">
      <path
         sodipodi:nodetypes="cccccccccc"
         inkscape:connector-curvature="0"
         id="path3057"
         d="m 937.99274,570.20982 -5.3561,27.50877 c 12.38488,2.01731 23.9268,13.94949 27.6686,34.30373 l 0,46.40625 28,0 0,-45.9375 c 4.91658,-19.75578 15.85896,-32.50381 27.29356,-34.77382 l -5.356,-26.10118 c -15.59687,3.83811 -27.01722,13.80239 -35.65631,26.5625 -8.73754,-13.43668 -20.41712,-23.98793 -36.59375,-27.96875 z"
         style="font-size:medium;font-style:normal;font-variant:normal;font-weight:normal;font-stretch:normal;text-indent:0;text-align:start;text-decoration:none;line-height:normal;letter-spacing:normal;word-spacing:normal;text-transform:none;direction:ltr;block-progression:tb;writing-mode:lr-tb;text-anchor:start;baseline-shift:baseline;color:#000000;fill:#ffffff;fill-opacity:1;stroke:none;stroke-width:28;marker:none;visibility:visible;display:inline;overflow:visible;enable-background:accumulate;font-family:Sans;-inkscape-font-specification:Sans" />
      <path
         style="font-size:medium;font-style:normal;font-variant:normal;font-weight:normal;font-stretch:normal;text-indent:0;text-align:start;text-decoration:none;line-height:normal;letter-spacing:normal;word-spacing:normal;text-transform:none;direction:ltr;block-progression:tb;writing-mode:lr-tb;text-anchor:start;baseline-shift:baseline;color:#000000;fill:#ffffff;fill-opacity:1;stroke:none;stroke-width:28;marker:none;visibility:visible;display:inline;overflow:visible;enable-background:accumulate;font-family:Sans;-inkscape-font-specification:Sans"
         d="m 937.99274,570.20982 -5.3561,27.50877 c 12.38488,2.01731 23.9268,13.94949 27.6686,34.30373 l 0,46.40625 28,0 0,-45.9375 c 4.91658,-19.75578 15.85896,-32.50381 27.29356,-34.77382 l -5.356,-26.10118 c -15.59687,3.83811 -27.01722,13.80239 -35.65631,26.5625 -8.73754,-13.43668 -20.41712,-23.98793 -36.59375,-27.96875 z"
         id="path3059"
         inkscape:connector-curvature="0"
         sodipodi:nodetypes="cccccccccc" />
    </g>
    <path
       style="font-size:medium;font-style:normal;font-variant:normal;font-weight:normal;font-stretch:normal;text-indent:0;text-align:start;text-decoration:none;line-height:normal;letter-spacing:normal;word-spacing:normal;text-transform:none;direction:ltr;block-progression:tb;writing-mode:lr-tb;text-anchor:start;baseline-shift:baseline;color:#000000;fill:#ffffff;fill-opacity:1;stroke:none;stroke-width:28.20000076000000178;marker:none;visibility:visible;display:inline;overflow:visible;enable-background:accumulate;font-family:Sans;-inkscape-font-specification:Sans"
       d="m 548.38051,429.90101 -12.46888,22.81136 -49.13466,89.89224 36.53867,0 5.12108,-15.56199 41.98188,0 5.50772,15.56199 36.8609,0 -51.48667,-90.11778 z m 0.49334,55.96075 12.66291,22.20802 -24.79814,0 z"
       id="path3061"
       inkscape:connector-curvature="0"
       sodipodi:nodetypes="cccccccccccccc" />
    <path
       style="font-size:medium;font-style:normal;font-variant:normal;font-weight:normal;font-stretch:normal;text-indent:0;text-align:start;text-decoration:none;line-height:normal;letter-spacing:normal;word-spacing:normal;text-transform:none;direction:ltr;block-progression:tb;writing-mode:lr-tb;text-anchor:start;baseline-shift:baseline;color:#000000;fill:url(#radialGradient3925);fill-opacity:1;stroke:#000000;stroke-width:15.46533108;stroke-miterlimit:4;stroke-opacity:1;stroke-dasharray:none;marker:none;visibility:visible;display:inline;overflow:visible;enable-background:accumulate;font-family:Sans;-inkscape-font-specification:Sans"
       d="m 428.34608,1.0286961 -5.52225,28.3621499 c 12.76908,2.079891 24.66906,14.382232 28.52694,35.367904 l 0,47.84587 28.86861,0 0,-47.362579 c 5.06911,-20.368646 16.35094,-33.512146 28.14027,-35.852577 L 502.83749,2.4785709 C 486.75678,6.4357471 474.98214,16.70914 466.07505,29.865095 457.06645,16.011581 445.02455,5.1330095 428.34608,1.0286961 z"
       id="path3881"
       inkscape:connector-curvature="0"
       sodipodi:nodetypes="cccccccccc" />
    <path
       sodipodi:nodetypes="cccccccccc"
       inkscape:connector-curvature="0"
       id="path3883"
       d="m 428.34608,1.0286961 -5.52225,28.3621499 c 12.76908,2.079891 24.66906,14.382232 28.52694,35.367904 l 0,47.84587 28.86861,0 0,-47.362579 c 5.06911,-20.368646 16.35094,-33.512146 28.14027,-35.852577 L 502.83749,2.4785709 C 486.75678,6.4357471 474.98214,16.70914 466.07505,29.865095 457.06645,16.011581 445.02455,5.1330095 428.34608,1.0286961 z"
       style="font-size:medium;font-style:normal;font-variant:normal;font-weight:normal;font-stretch:normal;text-indent:0;text-align:start;text-decoration:none;line-height:normal;letter-spacing:normal;word-spacing:normal;text-transform:none;direction:ltr;block-progression:tb;writing-mode:lr-tb;text-anchor:start;baseline-shift:baseline;color:#000000;fill:url(#radialGradient3922);fill-opacity:1;stroke:#000000;stroke-width:15.46533108;stroke-miterlimit:4;stroke-opacity:1;stroke-dasharray:none;marker:none;visibility:visible;display:inline;overflow:visible;enable-background:accumulate;font-family:Sans;-inkscape-font-specification:Sans" />
    <path
       inkscape:connector-curvature="0"
       id="path3887"
       d="M 281.17128,0.52610371 265.31931,26.45731 250.85278,50.160879 236.86955,26.631346 222.01639,1.5355053 211.41619,29.03303 l -32.21944,83.57159 31.25286,0 17.01186,-44.065648 11.05127,18.65654 11.98563,20.222868 12.21117,-20.048831 10.89017,-17.855983 14.46653,43.091054 30.70513,0 -27.80538,-82.875455 -9.79471,-29.20306129 z"
       style="font-size:medium;font-style:normal;font-variant:normal;font-weight:normal;font-stretch:normal;text-indent:0;text-align:start;text-decoration:none;line-height:normal;letter-spacing:normal;word-spacing:normal;text-transform:none;direction:ltr;block-progression:tb;writing-mode:lr-tb;text-anchor:start;baseline-shift:baseline;color:#000000;fill:#ff6f00;fill-opacity:1;stroke:#000000;stroke-width:15.46533108;stroke-miterlimit:4;stroke-opacity:1;stroke-dasharray:none;marker:none;visibility:visible;display:inline;overflow:visible;enable-background:accumulate;font-family:Sans;-inkscape-font-specification:Sans" />
    <path
       sodipodi:nodetypes="cccccccccccccc"
       inkscape:connector-curvature="0"
       id="path3889"
       d="M 379.13849,-0.09898436 366.66957,22.71238 l -49.13465,89.89224 36.53865,0 5.12109,-15.561991 41.98193,0 5.50772,15.561991 36.86084,0 -51.48666,-90.117776 z m 0.57995,59.60596536 8.50594,14.917601 -16.65746,0 z"
       style="font-size:medium;font-style:normal;font-variant:normal;font-weight:normal;font-stretch:normal;text-indent:0;text-align:start;text-decoration:none;line-height:normal;letter-spacing:normal;word-spacing:normal;text-transform:none;direction:ltr;block-progression:tb;writing-mode:lr-tb;text-anchor:start;baseline-shift:baseline;color:#000000;fill:#ff6f00;fill-opacity:1;stroke:#000000;stroke-width:15.46533108;stroke-miterlimit:4;stroke-opacity:1;stroke-dasharray:none;marker:none;visibility:visible;display:inline;overflow:visible;enable-background:accumulate;font-family:Sans;-inkscape-font-specification:Sans" />
    <path
       style="font-size:medium;font-style:normal;font-variant:normal;font-weight:normal;font-stretch:normal;text-indent:0;text-align:start;text-decoration:none;line-height:normal;letter-spacing:normal;word-spacing:normal;text-transform:none;direction:ltr;block-progression:tb;writing-mode:lr-tb;text-anchor:start;baseline-shift:baseline;color:#000000;fill:#ff6f00;fill-opacity:1;stroke:#000000;stroke-width:15.46533108;stroke-miterlimit:4;stroke-opacity:1;stroke-dasharray:none;marker:none;visibility:visible;display:inline;overflow:visible;enable-background:accumulate;font-family:Sans;-inkscape-font-specification:Sans"
       d="M 548.38052,-0.09898436 535.91165,22.71238 l -49.13467,89.89224 36.53867,0 5.12109,-15.561991 41.98188,0 5.50772,15.561991 36.8609,0 -51.48667,-90.117776 z m 0.57995,59.60596536 8.50594,14.917601 -16.6574,0 z"
       id="path3891"
       inkscape:connector-curvature="0"
       sodipodi:nodetypes="cccccccccccccc" />
    <path
       style="font-size:medium;font-style:normal;font-variant:normal;font-weight:normal;font-stretch:normal;text-indent:0;text-align:start;text-decoration:none;line-height:normal;letter-spacing:normal;word-spacing:normal;text-transform:none;direction:ltr;block-progression:tb;writing-mode:lr-tb;text-anchor:start;baseline-shift:baseline;color:#000000;fill:#000000;fill-opacity:1;stroke:none;stroke-width:11.30000019;marker:none;visibility:visible;display:inline;overflow:visible;enable-background:accumulate;font-family:Sans;-inkscape-font-specification:Sans"
       d="m 314.04336,130.16774 -4.44628,5.99281 -28.35311,38.1156 9.34364,6.92718 10.82573,-14.56319 27.45097,0 12.56558,15.33646 9.02144,-7.37825 -31.67166,-38.66333 z m 105.03538,0.0644 0,51.74442 11.66344,0 0,-20.8782 35.86028,0 0,20.8782 11.63117,0 0,-51.55111 -11.63117,0 0,19.00947 -35.86028,0 0,-19.20278 z m 83.96391,0.19331 0,51.55111 11.66344,0 0,-51.55111 z m -133.4208,0.25776 -5.76723,0.0644 0,5.73506 0,45.49385 11.66343,0 0,-14.9176 0.22559,0.86992 c 11.54735,-2.9723 18.50437,-5.89553 22.90797,-10.47132 2.20185,-2.28789 3.70199,-5.48465 3.54414,-8.69925 -0.15785,-3.21459 -1.73531,-5.81848 -3.54414,-7.73266 -3.61775,-3.82838 -8.52273,-6.03611 -13.69331,-7.73267 -5.17037,-1.69655 -10.53478,-2.66698 -15.33645,-2.60977 z m 251.73058,0.19332 c -4.68816,0.44949 -9.17372,1.26159 -13.11326,2.48089 -3.93984,1.21931 -7.36758,2.65892 -10.14917,5.54175 -1.39085,1.44141 -2.64849,3.47637 -2.93202,5.92837 -0.28333,2.45201 0.5318,4.94061 1.80429,6.79831 2.54507,3.7154 6.4344,5.97386 12.14678,8.44149 4.14862,1.79212 6.61617,3.38444 7.92598,4.44628 -0.70522,0.47037 -1.60726,1.04575 -2.96419,1.61097 -3.09647,1.28985 -7.64946,2.64174 -13.30658,3.89856 l 2.51302,11.37346 c 6.05911,-1.34606 11.17308,-2.78987 15.30428,-4.51072 4.1312,-1.72086 7.54842,-3.45489 9.79471,-7.2816 1.12309,-1.91336 1.64737,-4.55956 1.12773,-6.89496 -0.51984,-2.3354 -1.78593,-4.16174 -3.25421,-5.67062 -2.93666,-3.01776 -6.95198,-5.25726 -12.53342,-7.66823 -3.05976,-1.3218 -4.70929,-2.44981 -5.79949,-3.28638 0.92142,-0.49966 2.15782,-1.07989 3.76972,-1.57875 2.93305,-0.90776 6.7633,-1.6434 10.79346,-2.02983 z m -384.50684,0.51551 c -0.91607,0.004 -1.85017,0.008 -2.80315,0.0322 l -5.70279,0.12888 0,5.67062 0,44.75281 11.66344,0 0,-21.65147 3.51197,2.93197 23.198,19.33167 7.47491,-8.95701 -16.72194,-13.9188 c 2.84335,-1.83425 5.24079,-3.72487 7.02383,-5.83172 1.59458,-1.8842 2.85707,-4.0464 3.25422,-6.6372 0.39694,-2.5908 -0.34467,-5.45995 -1.80429,-7.50713 -2.91954,-4.09435 -7.29912,-5.6831 -12.56568,-6.86274 -4.60805,-1.03219 -10.11629,-1.50767 -16.52852,-1.48209 z m 338.56192,0.0644 c -13.10934,1.5027 -23.46719,4.69065 -30.9951,9.05366 -7.5279,4.36301 -12.8389,10.22417 -13.01665,17.55959 -0.17775,7.33543 5.41585,13.45578 13.43556,17.04409 8.01949,3.5883 19.16896,5.54865 34.02372,5.50952 l -0.032,-11.66344 c -13.77074,0.0363 -23.53854,-1.935 -29.22298,-4.4785 -5.68464,-2.5435 -6.60565,-4.76565 -6.57276,-6.12169 0.033,-1.35604 1.62571,-4.5243 7.21715,-7.76489 5.59123,-3.24058 14.57216,-6.2061 26.48428,-7.57157 l -1.32095,-11.56677 z M 203.724,131.81085 c -8.75884,0.27951 -17.57191,2.56331 -25.06672,6.02503 -7.49481,3.46173 -13.86034,7.85932 -17.17302,14.20878 -1.65613,3.17472 -2.37104,7.15793 -1.2565,10.92239 1.11453,3.76446 3.80612,6.91027 7.41047,9.37585 7.2088,4.93118 18.4421,8.06723 36.02133,9.89137 l 6.08953,0.64439 0.32209,-6.12169 c 0.47334,-9.08579 0.29003,-16.65745 0.29003,-16.65745 l -11.66344,0.28997 c 0,0 -0.11774,5.51113 -0.16105,9.37586 -12.65507,-1.83903 -20.73911,-4.60266 -24.32573,-7.05606 -2.0873,-1.4278 -2.63611,-2.49733 -2.80314,-3.06084 -0.16682,-0.56352 -0.19208,-1.01979 0.41891,-2.19093 1.22196,-2.34226 5.63072,-6.25233 11.6956,-9.05366 6.06509,-2.80133 13.62259,-4.74054 20.55611,-4.96179 z m 171.79405,11.11571 c 1.90451,0.34886 3.93243,0.82668 5.83167,1.44987 4.07027,1.33553 7.68318,3.46015 8.82823,4.67182 0.15053,0.15936 0.17424,0.19104 0.19322,0.19332 -0.0286,0.0293 -0.0279,0.0245 -0.12888,0.12887 -1.18052,1.22687 -5.98859,3.91191 -14.72424,6.44389 z m -135.51496,0.25775 c 4.26874,0.14022 8.10651,0.45416 10.82573,1.06324 2.91305,0.6525 4.3005,1.4549 4.9618,1.86873 -0.0959,0.1503 2e-4,0.0291 -0.19332,0.25776 -1.30064,1.53682 -4.92354,4.28204 -10.89017,7.15271 l -4.70404,2.25536 z m 74.49135,5.89616 4.83291,5.89616 -9.21476,0 z"
       id="path3893"
       inkscape:connector-curvature="0"
       sodipodi:nodetypes="cccccccccccccccccccccccccccccccccccssscccccccscsccscccccsccccccccccccccccscccssscccccccccscssccccccscsccccsccccccsccccccccc" />
    <path
       style="font-size:medium;font-style:normal;font-variant:normal;font-weight:normal;font-stretch:normal;text-indent:0;text-align:start;text-decoration:none;line-height:normal;letter-spacing:normal;word-spacing:normal;text-transform:none;direction:ltr;block-progression:tb;writing-mode:lr-tb;text-anchor:start;baseline-shift:baseline;color:#000000;fill:url(#radialGradient3911);fill-opacity:1;stroke:none;stroke-width:28;marker:none;visibility:visible;display:inline;overflow:visible;enable-background:accumulate;font-family:Sans;-inkscape-font-specification:Sans"
       d="M 281.17127,0.52608977 265.3193,26.4573 250.85277,50.16087 236.86954,26.63134 222.01637,1.5354998 211.41618,29.03302 l -32.21944,83.57159 31.25285,0 17.01187,-44.06565 11.05127,18.65654 11.98563,20.22287 12.21117,-20.04883 10.89017,-17.85599 14.46653,43.09106 30.70512,0 -27.80537,-82.87546 -9.79471,-29.20306023 z"
       id="path3895"
       inkscape:connector-curvature="0" />
    <path
       style="font-size:medium;font-style:normal;font-variant:normal;font-weight:normal;font-stretch:normal;text-indent:0;text-align:start;text-decoration:none;line-height:normal;letter-spacing:normal;word-spacing:normal;text-transform:none;direction:ltr;block-progression:tb;writing-mode:lr-tb;text-anchor:start;baseline-shift:baseline;color:#000000;fill:url(#radialGradient3913);fill-opacity:1;stroke:none;stroke-width:28.20000076;marker:none;visibility:visible;display:inline;overflow:visible;enable-background:accumulate;font-family:Sans;-inkscape-font-specification:Sans"
       d="M 379.13848,-0.09899023 366.66956,22.71237 l -49.13465,89.89224 36.53865,0 5.12109,-15.56199 41.98193,0 5.50772,15.56199 36.86084,0 -51.48667,-90.11778 z m 0.50571,56.48149023 12.06905,21.16654 -23.63521,0 z"
       id="path3897"
       inkscape:connector-curvature="0"
       sodipodi:nodetypes="cccccccccccccc" />
    <path
       sodipodi:nodetypes="cccccccccc"
       inkscape:connector-curvature="0"
       id="path3901"
       d="m 428.34608,1.0286961 -5.52225,28.3621499 c 12.76908,2.079891 24.66906,14.382232 28.52694,35.367904 l 0,47.84587 28.86861,0 0,-47.362579 c 5.06911,-20.368646 16.35094,-33.512146 28.14027,-35.852577 L 502.83749,2.4785709 C 486.75678,6.4357471 474.98214,16.70914 466.07505,29.865095 457.06645,16.011581 445.02455,5.1330095 428.34608,1.0286961 z"
       style="font-size:medium;font-style:normal;font-variant:normal;font-weight:normal;font-stretch:normal;text-indent:0;text-align:start;text-decoration:none;line-height:normal;letter-spacing:normal;word-spacing:normal;text-transform:none;direction:ltr;block-progression:tb;writing-mode:lr-tb;text-anchor:start;baseline-shift:baseline;color:#000000;fill:url(#radialGradient3934);fill-opacity:1;stroke:none;stroke-width:28;marker:none;visibility:visible;display:inline;overflow:visible;enable-background:accumulate;font-family:Sans;-inkscape-font-specification:Sans" />
    <path
       style="font-size:medium;font-style:normal;font-variant:normal;font-weight:normal;font-stretch:normal;text-indent:0;text-align:start;text-decoration:none;line-height:normal;letter-spacing:normal;word-spacing:normal;text-transform:none;direction:ltr;block-progression:tb;writing-mode:lr-tb;text-anchor:start;baseline-shift:baseline;color:#000000;fill:url(#radialGradient3931);fill-opacity:1;stroke:none;stroke-width:28;marker:none;visibility:visible;display:inline;overflow:visible;enable-background:accumulate;font-family:Sans;-inkscape-font-specification:Sans"
       d="m 428.34608,1.0286961 -5.52225,28.3621499 c 12.76908,2.079891 24.66906,14.382232 28.52694,35.367904 l 0,47.84587 28.86861,0 0,-47.362579 c 5.06911,-20.368646 16.35094,-33.512146 28.14027,-35.852577 L 502.83749,2.4785709 C 486.75678,6.4357471 474.98214,16.70914 466.07505,29.865095 457.06645,16.011581 445.02455,5.1330095 428.34608,1.0286961 z"
       id="path3903"
       inkscape:connector-curvature="0"
       sodipodi:nodetypes="cccccccccc" />
    <path
       sodipodi:nodetypes="cccccccccccccc"
       inkscape:connector-curvature="0"
       id="path3905"
       d="M 548.38051,-0.09899023 535.91163,22.71237 l -49.13466,89.89224 36.53867,0 5.12108,-15.56199 41.98188,0 5.50772,15.56199 36.8609,0 -51.48667,-90.11778 z m 0.49334,55.96075023 12.66291,22.20802 -24.79814,0 z"
       style="font-size:medium;font-style:normal;font-variant:normal;font-weight:normal;font-stretch:normal;text-indent:0;text-align:start;text-decoration:none;line-height:normal;letter-spacing:normal;word-spacing:normal;text-transform:none;direction:ltr;block-progression:tb;writing-mode:lr-tb;text-anchor:start;baseline-shift:baseline;color:#000000;fill:url(#radialGradient3919);fill-opacity:1;stroke:none;stroke-width:28.20000076;marker:none;visibility:visible;display:inline;overflow:visible;enable-background:accumulate;font-family:Sans;-inkscape-font-specification:Sans" />
  </g>
</svg>
